<svg width="67" height="36" viewBox="0 0 67 36" fill="none" xmlns="http://www.w3.org/2000/svg">
<g clip-path="url(#clip0_69_511)">
<path d="M0 -0.000488281H7.6798V5.60821H24.6472V-0.000488281H32.3322V17.0604H24.6472V11.4569H7.6798V17.0604H0V-0.000488281Z" fill="#4900E3"/>
<path d="M66.6052 8.53019C66.6624 13.1267 62.7445 17.3685 58.0981 17.3058C55.5694 17.0711 41.5365 17.9528 39.4761 16.6015C32.5559 13.3772 34.5539 6.09367 34.273 -0.000244141H41.958C41.8071 14.6658 40.8341 10.278 56.4903 10.9563C56.8106 10.9591 57.1283 10.8978 57.4247 10.776C57.7211 10.6542 57.9903 10.4744 58.2166 10.247C58.4428 10.0197 58.6216 9.74933 58.7424 9.45185C58.8632 9.15438 58.9236 8.83572 58.9202 8.51454V-0.000244141H66.6052V8.53019Z" fill="#4900E3"/>
<path d="M0 19.0322H7.6798L24.6472 28.7835V19.0322H32.3322V36.0931H24.6472L7.6798 26.3366V36.0827H0V19.0322Z" fill="#4900E3"/>
<mask id="mask0_69_511" style="mask-type:luminance" maskUnits="userSpaceOnUse" x="34" y="19" width="33" height="18">
<path d="M66.6 19.0159H34.2729V36.0767H66.6V19.0159Z" fill="white"/>
</mask>
<g mask="url(#mask0_69_511)">
<path d="M46.5627 24.865H34.2729V19.032H66.6052V24.8807H54.2581V36.0929H46.5627V24.865Z" fill="#4900E3"/>
<path d="M46.6624 19.8386L30.6875 35.8573L34.8118 39.9929L50.7868 23.9742L46.6624 19.8386Z" fill="#4900E3"/>
<path d="M54.5626 19.8358L50.4382 23.9714L65.2763 38.8502L69.4007 34.7145L54.5626 19.8358Z" fill="#4900E3"/>
</g>
</g>
<defs>
<clipPath id="clip0_69_511">
<rect width="66.6" height="36" fill="white"/>
</clipPath>
</defs>
</svg>
