<svg width="36" height="36" viewBox="0 0 36 36" fill="none" xmlns="http://www.w3.org/2000/svg">
<rect x="15.4282" y="15.4287" width="2.57143" height="2.57143" fill="#FF1DF0"/>
<rect x="20.5713" y="23.1429" width="2.57143" height="2.57143" fill="#DD00FF"/>
<rect x="18" y="23.1429" width="2.57143" height="2.57143" fill="#DD00FF"/>
<rect x="18" y="15.4287" width="2.57143" height="2.57143" fill="#FF1DF0"/>
<rect x="23.1428" y="10.286" width="2.57143" height="2.57143" fill="#C21D91"/>
<rect x="15.4282" y="23.1429" width="2.57143" height="2.57143" fill="#C21D91"/>
<rect x="10.2859" y="25.7139" width="2.57143" height="2.57143" fill="white"/>
<rect x="12.8572" y="28.2859" width="2.57143" height="2.57143" fill="white"/>
<rect x="15.4282" y="28.2859" width="2.57143" height="2.57143" fill="white"/>
<rect x="20.5713" y="15.4287" width="2.57143" height="2.57143" fill="white"/>
<rect x="28.2859" y="7.71411" width="2.57143" height="2.57143" fill="white"/>
<rect x="23.1428" y="5.14294" width="2.57143" height="2.57143" fill="white"/>
<rect x="18" y="18" width="2.57143" height="2.57143" fill="#FF1DF0"/>
<rect x="20.5713" y="18" width="2.57143" height="2.57143" fill="#FF1DF0"/>
<rect x="25.7141" y="12.8571" width="2.57143" height="2.57143" fill="#C21D91"/>
<rect x="18" y="20.5713" width="2.57143" height="2.57143" fill="#FF1DF0"/>
<rect x="15.4282" y="20.5713" width="2.57143" height="2.57143" fill="#FF1DF0"/>
<rect x="15.4282" y="12.8571" width="2.57143" height="2.57143" fill="#FF1DF0"/>
<rect x="20.5713" y="20.5713" width="2.57143" height="2.57143" fill="#DD00FF"/>
<rect x="20.5713" y="7.71411" width="2.57143" height="2.57143" fill="#C21D91"/>
<rect x="12.8572" y="20.5713" width="2.57143" height="2.57143" fill="#C21D91"/>
<rect x="7.71411" y="23.1429" width="2.57143" height="2.57143" fill="white"/>
<rect x="18" y="7.71411" width="2.57143" height="2.57143" fill="#C21D91"/>
<rect x="18" y="12.8571" width="2.57143" height="2.57143" fill="white"/>
<rect x="25.7141" y="5.14294" width="2.57143" height="2.57143" fill="white"/>
<rect x="20.5713" y="2.57129" width="2.57143" height="2.57143" fill="white"/>
<rect x="18" y="2.57129" width="2.57143" height="2.57143" fill="white"/>
<rect x="12.8572" y="15.4287" width="2.57143" height="2.57143" fill="#FF1DF0"/>
<rect x="12.8572" y="18" width="2.57143" height="2.57143" fill="#FF1DF0"/>
<rect x="18" y="25.7139" width="2.57143" height="2.57143" fill="#DD00FF"/>
<rect x="18" y="28.2859" width="2.57143" height="2.57143" fill="#FF1DF0"/>
<rect x="12.8572" y="30.8571" width="2.57143" height="2.57143" fill="#FF1DF0"/>
<rect x="7.71411" y="28.2859" width="2.57143" height="2.57143" fill="#FF1DF0"/>
<rect x="5.14282" y="23.1429" width="2.57143" height="2.57143" fill="#FF1DF0"/>
<rect x="5.14282" y="25.7139" width="2.57143" height="2.57143" fill="#FF1DF0"/>
<rect x="2.57178" y="20.5713" width="2.57143" height="2.57143" fill="#FF1DF0"/>
<rect x="2.57178" y="18" width="2.57143" height="2.57143" fill="#FF1DF0"/>
<rect x="2.57178" y="15.4287" width="2.57143" height="2.57143" fill="#FF1DF0"/>
<rect x="2.57178" y="12.8571" width="2.57143" height="2.57143" fill="#FF1DF0"/>
<rect x="5.14282" y="10.286" width="2.57143" height="2.57143" fill="#FF1DF0"/>
<rect x="5.14282" y="7.71411" width="2.57143" height="2.57143" fill="#FF1DF0"/>
<rect x="7.71411" y="5.14294" width="2.57143" height="2.57143" fill="#FF1DF0"/>
<rect x="7.71411" y="5.14294" width="2.57143" height="2.57143" fill="#FF1DF0"/>
<rect x="20.5713" y="28.2859" width="2.57143" height="2.57143" fill="#FF1DF0"/>
<rect x="15.4282" y="30.8571" width="2.57143" height="2.57143" fill="#FF1DF0"/>
<rect x="10.2859" y="28.2859" width="2.57143" height="2.57143" fill="#FF1DF0"/>
<rect x="7.71411" y="25.7139" width="2.57143" height="2.57143" fill="#FF1DF0"/>
<rect x="5.14282" y="20.5713" width="2.57143" height="2.57143" fill="#FF1DF0"/>
<rect x="5.14282" y="18" width="2.57143" height="2.57143" fill="#FF1DF0"/>
<rect x="5.14282" y="15.4287" width="2.57143" height="2.57143" fill="#FF1DF0"/>
<rect x="5.14282" y="12.8571" width="2.57143" height="2.57143" fill="#FF1DF0"/>
<rect x="7.71411" y="10.286" width="2.57143" height="2.57143" fill="#FF1DF0"/>
<rect x="7.71411" y="7.71411" width="2.57143" height="2.57143" fill="#FF1DF0"/>
<rect x="10.2859" y="5.14294" width="2.57143" height="2.57143" fill="#FF1DF0"/>
<rect x="10.2859" y="5.14294" width="2.57143" height="2.57143" fill="#FF1DF0"/>
<rect x="10.2859" y="7.71411" width="2.57143" height="2.57143" fill="#FF1DF0"/>
<rect x="30.8572" y="15.4287" width="2.57143" height="2.57143" transform="rotate(90 30.8572 15.4287)" fill="#FF1DF0"/>
<rect x="33.4282" y="18" width="2.57143" height="2.57143" transform="rotate(90 33.4282 18)" fill="#FF1DF0"/>
<rect x="36" y="18" width="2.57143" height="2.57143" transform="rotate(90 36 18)" fill="#C5009A"/>
<rect x="30.8572" y="18" width="2.57143" height="2.57143" transform="rotate(90 30.8572 18)" fill="#FF1DF0"/>
<rect x="33.4282" y="20.5713" width="2.57143" height="2.57143" transform="rotate(90 33.4282 20.5713)" fill="#FF1DF0"/>
<rect x="36" y="20.5713" width="2.57143" height="2.57143" transform="rotate(90 36 20.5713)" fill="#C5009A"/>
<rect x="30.8572" y="23.1429" width="2.57143" height="2.57143" transform="rotate(90 30.8572 23.1429)" fill="#FF1DF0"/>
<rect x="28.2859" y="23.1429" width="2.57143" height="2.57143" transform="rotate(90 28.2859 23.1429)" fill="#FF1DF0"/>
<rect x="30.8572" y="20.5713" width="2.57143" height="2.57143" transform="rotate(90 30.8572 20.5713)" fill="#FF1DF0"/>
<rect x="5.14282" y="7.71411" width="2.57143" height="2.57143" fill="#FF1DF0"/>
<rect x="7.71411" y="5.14294" width="2.57143" height="2.57143" fill="#FF1DF0"/>
<rect x="7.71411" y="7.71411" width="2.57143" height="2.57143" fill="#FF1DF0"/>
<rect x="10.2859" y="5.14294" width="2.57143" height="2.57143" fill="#FF1DF0"/>
<rect x="10.2859" y="7.71411" width="2.57143" height="2.57143" fill="#FF1DF0"/>
<rect width="2.57143" height="2.57143" transform="matrix(-1 0 0 1 20.5713 5.14294)" fill="#FF1DF0"/>
<rect width="2.57143" height="2.57143" transform="matrix(-1 0 0 1 25.7141 7.71411)" fill="#FF1DF0"/>
<rect width="2.57143" height="2.57143" transform="matrix(-1 0 0 1 30.8572 10.286)" fill="#FF1DF0"/>
<rect width="2.57143" height="2.57143" transform="matrix(-1 0 0 1 30.8572 12.8571)" fill="#FF1DF0"/>
<rect width="2.57143" height="2.57143" transform="matrix(-1 0 0 1 33.4282 15.4287)" fill="#FF1DF0"/>
<rect width="2.57143" height="2.57143" transform="matrix(-1 0 0 1 36 15.4287)" fill="#C5009A"/>
<rect width="2.57143" height="2.57143" transform="matrix(-1 0 0 1 33.4282 10.286)" fill="#C5009A"/>
<rect width="2.57143" height="2.57143" transform="matrix(4.37114e-08 -1 -1 -4.37114e-08 25.7141 5.14294)" fill="#C5009A"/>
<rect width="2.57143" height="2.57143" transform="matrix(-1 0 0 1 18 2.57129)" fill="#FF1DF0"/>
<rect width="2.57143" height="2.57143" transform="matrix(-1 0 0 1 23.1428 5.14294)" fill="#FF1DF0"/>
<rect width="2.57143" height="2.57143" transform="matrix(-1 0 0 1 28.2859 7.71411)" fill="#FF1DF0"/>
<rect width="2.57143" height="2.57143" transform="matrix(-1 0 0 1 28.2859 10.286)" fill="#FF1DF0"/>
<rect width="2.57143" height="2.57143" transform="matrix(-1 0 0 1 33.4282 12.8571)" fill="#FF1DF0"/>
<rect width="2.57143" height="2.57143" transform="matrix(-1 0 0 1 36 12.8571)" fill="#C5009A"/>
<rect width="2.57143" height="2.57143" transform="matrix(-1 0 0 1 33.4282 7.71411)" fill="#C5009A"/>
<rect width="2.57143" height="2.57143" transform="matrix(4.37114e-08 -1 -1 -4.37114e-08 28.2859 5.14294)" fill="#C5009A"/>
<rect width="2.57143" height="2.57143" transform="matrix(-1 0 0 1 30.8572 5.14294)" fill="#C5009A"/>
<rect x="18" y="36" width="2.57143" height="2.57143" transform="rotate(-180 18 36)" fill="#C5009A"/>
<rect x="15.4282" y="36" width="2.57143" height="2.57143" transform="rotate(-180 15.4282 36)" fill="#C5009A"/>
<rect width="2.57143" height="2.57143" transform="matrix(4.37114e-08 -1 -1 -4.37114e-08 20.5713 36)" fill="#C5009A"/>
<rect width="2.57143" height="2.57143" transform="matrix(4.37114e-08 -1 -1 -4.37114e-08 25.7141 33.4287)" fill="#C5009A"/>
<rect width="2.57143" height="2.57143" transform="matrix(1 8.74228e-08 8.74228e-08 -1 30.8572 25.7139)" fill="#C5009A"/>
<rect width="2.57143" height="2.57143" transform="matrix(4.37114e-08 -1 -1 -4.37114e-08 23.1428 36)" fill="#C5009A"/>
<rect width="2.57143" height="2.57143" transform="matrix(4.37114e-08 -1 -1 -4.37114e-08 28.2859 33.4287)" fill="#C5009A"/>
<rect width="2.57143" height="2.57143" transform="matrix(1 8.74228e-08 8.74228e-08 -1 30.8572 28.2859)" fill="#C5009A"/>
<rect width="2.57143" height="2.57143" transform="matrix(4.37114e-08 -1 -1 -4.37114e-08 30.8572 30.8571)" fill="#C5009A"/>
<rect y="18" width="2.57143" height="2.57143" transform="rotate(-90 0 18)" fill="#C5009A"/>
<rect y="15.4287" width="2.57143" height="2.57143" transform="rotate(-90 0 15.4287)" fill="#C5009A"/>
<rect width="2.57143" height="2.57143" transform="matrix(1 8.74228e-08 8.74228e-08 -1 0 20.5713)" fill="#C5009A"/>
<rect width="2.57143" height="2.57143" transform="matrix(1 8.74228e-08 8.74228e-08 -1 2.57178 25.7139)" fill="#C5009A"/>
<rect width="2.57143" height="2.57143" transform="matrix(-1.31134e-07 1 1 1.31134e-07 10.2859 30.8571)" fill="#C5009A"/>
<rect width="2.57143" height="2.57143" transform="matrix(1 8.74228e-08 8.74228e-08 -1 0 23.1429)" fill="#C5009A"/>
<rect width="2.57143" height="2.57143" transform="matrix(1 8.74228e-08 8.74228e-08 -1 2.57178 28.2859)" fill="#C5009A"/>
<rect width="2.57143" height="2.57143" transform="matrix(-1.31134e-07 1 1 1.31134e-07 7.71411 30.8571)" fill="#C5009A"/>
<rect width="2.57143" height="2.57143" transform="matrix(1 8.74228e-08 8.74228e-08 -1 5.14282 30.8571)" fill="#C5009A"/>
<rect x="18" width="2.57143" height="2.57143" fill="#C5009A"/>
<rect x="20.5713" width="2.57143" height="2.57143" fill="#C5009A"/>
<rect width="2.57143" height="2.57143" transform="matrix(-1.31134e-07 1 1 1.31134e-07 15.4282 0)" fill="#C5009A"/>
<rect width="2.57143" height="2.57143" transform="matrix(-1.31134e-07 1 1 1.31134e-07 10.2859 2.57129)" fill="#C5009A"/>
<rect width="2.57143" height="2.57143" transform="matrix(-1 -1.74846e-07 -1.74846e-07 1 5.14282 10.286)" fill="#C5009A"/>
<rect width="2.57143" height="2.57143" transform="matrix(-1.31134e-07 1 1 1.31134e-07 12.8572 0)" fill="#C5009A"/>
<rect width="2.57143" height="2.57143" transform="matrix(-1.31134e-07 1 1 1.31134e-07 7.71411 2.57129)" fill="#C5009A"/>
<rect width="2.57143" height="2.57143" transform="matrix(-1 -1.74846e-07 -1.74846e-07 1 5.14282 7.71411)" fill="#C5009A"/>
<rect width="2.57143" height="2.57143" transform="matrix(-1.31134e-07 1 1 1.31134e-07 5.14282 5.14294)" fill="#C5009A"/>
<rect width="2.57143" height="2.57143" transform="matrix(-1 0 0 1 18 5.14294)" fill="#FF1DF0"/>
<rect width="2.57143" height="2.57143" transform="matrix(-1 0 0 1 15.4282 2.57129)" fill="#FF1DF0"/>
<rect width="2.57143" height="2.57143" transform="matrix(-1 0 0 1 15.4282 5.14294)" fill="#FF1DF0"/>
<rect x="23.1428" y="25.7139" width="2.57143" height="2.57143" fill="#FF1DF0"/>
<rect x="23.1428" y="28.2859" width="2.57143" height="2.57143" fill="#FF1DF0"/>
<rect x="18" y="30.8571" width="2.57143" height="2.57143" fill="#FF1DF0"/>
<rect x="25.7141" y="25.7139" width="2.57143" height="2.57143" fill="#FF1DF0"/>
<rect x="25.7141" y="28.2859" width="2.57143" height="2.57143" fill="#FF1DF0"/>
<rect x="20.5713" y="30.8571" width="2.57143" height="2.57143" fill="#FF1DF0"/>
<rect x="28.2859" y="25.7139" width="2.57143" height="2.57143" fill="#FF1DF0"/>
<rect x="15.4282" y="25.7139" width="2.57143" height="2.57143" fill="#DD00FF"/>
<rect x="12.8572" y="23.1429" width="2.57143" height="2.57143" fill="#DD00FF"/>
<rect x="10.2859" y="18" width="2.57143" height="2.57143" fill="#DD00FF"/>
<rect x="10.2859" y="12.8571" width="2.57143" height="2.57143" fill="#DD00FF"/>
<rect x="12.8572" y="7.71411" width="2.57143" height="2.57143" fill="#DD00FF"/>
<rect x="12.8572" y="25.7139" width="2.57143" height="2.57143" fill="#DD00FF"/>
<rect x="7.71411" y="20.5713" width="2.57143" height="2.57143" fill="#DD00FF"/>
<rect x="7.71411" y="15.4287" width="2.57143" height="2.57143" fill="#DD00FF"/>
<rect x="10.2859" y="20.5713" width="2.57143" height="2.57143" fill="#DD00FF"/>
<rect x="10.2859" y="15.4287" width="2.57143" height="2.57143" fill="#DD00FF"/>
<rect x="12.8572" y="10.286" width="2.57143" height="2.57143" fill="#DD00FF"/>
<rect x="12.8572" y="10.286" width="2.57143" height="2.57143" transform="rotate(90 12.8572 10.286)" fill="#DD00FF"/>
<rect x="18" y="7.71411" width="2.57143" height="2.57143" transform="rotate(90 18 7.71411)" fill="#DD00FF"/>
<rect x="25.7141" y="15.4287" width="2.57143" height="2.57143" transform="rotate(90 25.7141 15.4287)" fill="#DD00FF"/>
<rect x="25.7141" y="20.5713" width="2.57143" height="2.57143" transform="rotate(90 25.7141 20.5713)" fill="#DD00FF"/>
<rect x="25.7141" y="23.1429" width="2.57143" height="2.57143" transform="rotate(90 25.7141 23.1429)" fill="#DD00FF"/>
<rect x="28.2859" y="15.4287" width="2.57143" height="2.57143" transform="rotate(90 28.2859 15.4287)" fill="#DD00FF"/>
<rect x="25.7141" y="12.8571" width="2.57143" height="2.57143" transform="rotate(90 25.7141 12.8571)" fill="#DD00FF"/>
<rect x="18" y="10.286" width="2.57143" height="2.57143" transform="rotate(90 18 10.286)" fill="#DD00FF"/>
<rect x="25.7141" y="18" width="2.57143" height="2.57143" transform="rotate(90 25.7141 18)" fill="#DD00FF"/>
<rect x="23.1428" y="12.8571" width="2.57143" height="2.57143" transform="rotate(90 23.1428 12.8571)" fill="#DD00FF"/>
<rect x="23.1428" y="10.286" width="2.57143" height="2.57143" transform="rotate(90 23.1428 10.286)" fill="#DD00FF"/>
<rect x="15.4282" y="12.8571" width="2.57143" height="2.57143" transform="rotate(90 15.4282 12.8571)" fill="#DD00FF"/>
<rect x="20.5713" y="10.286" width="2.57143" height="2.57143" transform="rotate(90 20.5713 10.286)" fill="#DD00FF"/>
<rect x="28.2859" y="18" width="2.57143" height="2.57143" transform="rotate(90 28.2859 18)" fill="#DD00FF"/>
<rect x="28.2859" y="20.5713" width="2.57143" height="2.57143" transform="rotate(90 28.2859 20.5713)" fill="#DD00FF"/>
<rect x="10.2859" y="23.1429" width="2.57143" height="2.57143" fill="#DD00FF"/>
<rect x="7.71411" y="18" width="2.57143" height="2.57143" fill="#DD00FF"/>
<rect x="7.71411" y="12.8571" width="2.57143" height="2.57143" fill="#DD00FF"/>
<rect x="15.4282" y="18" width="2.57143" height="2.57143" fill="#FF1DF0"/>
<rect x="20.5713" y="25.7139" width="2.57143" height="2.57143" fill="#DD00FF"/>
</svg>
