<svg width="50" height="50" viewBox="0 0 50 50" fill="none" xmlns="http://www.w3.org/2000/svg">
<g clip-path="url(#clip0_1_560)">
<path fill-rule="evenodd" clip-rule="evenodd" d="M28.1518 20.3005H33.5313V18.7381H28.1518V20.3005ZM30.8035 23.4382C29.6035 23.4382 28.6921 24.1922 28.6043 25.5854H32.9096C32.6178 23.932 31.8936 23.4382 30.8035 23.4382ZM30.9716 29.9002C32.0797 29.9002 32.8927 29.1903 33.0587 28.5923H35.389C34.7229 30.7551 33.3474 31.9698 30.8775 31.9698C27.7257 31.9698 25.9568 29.6964 25.9568 26.6797C25.9568 19.5753 36.0646 19.3206 35.5571 27.343H28.6043C28.672 28.9721 29.3349 29.9002 30.9716 29.9002ZM20.4853 29.5876C21.7573 29.5876 22.6475 29.0914 22.6475 27.7525C22.6475 26.3637 21.8609 25.7613 20.5403 25.7613H17.3536V29.5876H20.4853ZM20.3172 23.6728C21.3756 23.6728 22.1062 23.1732 22.1062 22.0126C22.1062 20.7899 21.2561 20.4125 20.0941 20.4125H17.3536V23.6728H20.3172ZM20.6904 18.0303C23.1973 18.0303 24.9397 18.8706 24.9397 21.4853C24.9397 22.7799 24.4269 23.7447 23.1317 24.3948C24.7896 24.8943 25.5741 26.2057 25.5741 27.9289C25.5741 30.6643 23.4352 31.9698 20.8765 31.9698H14.427V18.0303H20.6904Z" fill="white"/>
</g>
<defs>
<clipPath id="clip0_1_560">
<rect width="21.146" height="13.9042" fill="white" transform="translate(14.427 18.0479)"/>
</clipPath>
</defs>
</svg>
