<svg width="50" height="50" viewBox="0 0 50 50" fill="none" xmlns="http://www.w3.org/2000/svg">
<g clip-path="url(#clip0_1_552)">
<path fill-rule="evenodd" clip-rule="evenodd" d="M31.8742 14.427H14.3049C13.8244 14.427 13.3636 14.6175 13.0238 14.9565C12.684 15.2956 12.4932 15.7555 12.4932 16.235V33.765C12.4932 34.2445 12.684 34.7044 13.0238 35.0434C13.3636 35.3825 13.8244 35.573 14.3049 35.573H31.8742C32.3541 35.5721 32.8141 35.3813 33.1532 35.0423C33.4922 34.7033 33.6827 34.244 33.6827 33.765V16.235C33.6827 15.756 33.4922 15.2966 33.1532 14.9577C32.8141 14.6187 32.3541 14.4278 31.8742 14.427ZM32.2768 28.027C32.2756 29.6548 31.6268 31.2156 30.4729 32.3661C29.319 33.5167 27.7545 34.1628 26.1233 34.1625H20.0663C18.4354 34.1625 16.8713 33.5161 15.718 32.3654C14.5646 31.2148 13.9165 29.654 13.916 28.0265V21.9698C13.916 21.1638 14.075 20.3657 14.3841 19.6211C14.6931 18.8765 15.1462 18.1999 15.7173 17.63C16.2884 17.0602 16.9665 16.6082 17.7127 16.2999C18.4589 15.9916 19.2587 15.833 20.0663 15.8332H26.1366C27.7677 15.8335 29.332 16.48 30.4857 17.6307C31.6394 18.7813 32.2882 20.342 32.2895 21.9698L32.2757 28.0265L32.2768 28.027Z" fill="white"/>
<path d="M36.176 14.4268C36.4059 14.4274 36.6321 14.486 36.8328 14.5971C37.0431 14.7081 37.2164 14.8778 37.3308 15.085C37.446 15.2863 37.5066 15.514 37.5066 15.7458C37.5066 15.9776 37.446 16.2054 37.3308 16.4066C37.2158 16.6128 37.0447 16.783 36.836 16.8972C36.6335 17.0107 36.4051 17.0702 36.1728 17.0701C35.9462 17.0657 35.7243 17.0052 35.527 16.894C35.3201 16.7801 35.1496 16.61 35.0354 16.4034C34.9188 16.2027 34.8574 15.9747 34.8574 15.7426C34.8574 15.5106 34.9188 15.2826 35.0354 15.0818C35.1483 14.8735 35.3188 14.7012 35.527 14.5854C35.7266 14.479 35.9497 14.4245 36.176 14.4268ZM36.176 14.6436C35.9844 14.6451 35.7962 14.6945 35.6287 14.7874C35.4539 14.8809 35.3098 15.0221 35.2129 15.1944C35.1166 15.3622 35.0659 15.5522 35.0659 15.7455C35.0659 15.9389 35.1166 16.1289 35.2129 16.2967C35.3082 16.4685 35.4518 16.6096 35.6261 16.7037C35.7942 16.8003 35.9848 16.8512 36.1789 16.8512C36.3729 16.8512 36.5635 16.8003 36.7316 16.7037C36.9054 16.6096 37.049 16.4685 37.1448 16.2967C37.2412 16.1289 37.2918 15.9389 37.2918 15.7455C37.2918 15.5522 37.2412 15.3622 37.1448 15.1944C37.0485 15.0214 36.9038 14.8799 36.7285 14.7874C36.5594 14.6937 36.3693 14.6442 36.176 14.6436ZM35.6462 16.4267V15.0041H36.1378C36.2612 14.9983 36.3852 15.011 36.5044 15.0411C36.5786 15.066 36.6421 15.1151 36.6845 15.1802C36.7198 15.2315 36.7418 15.2908 36.7486 15.3527C36.7553 15.4146 36.7466 15.4772 36.7232 15.5349C36.7037 15.5816 36.6748 15.6239 36.6384 15.6591C36.5616 15.738 36.4572 15.7844 36.3471 15.7886C36.392 15.8061 36.4335 15.8315 36.4694 15.8637C36.5505 15.9525 36.622 16.0487 36.6819 16.1523L36.8567 16.441H36.5653L36.4382 16.2158C36.3779 16.0918 36.2959 15.9795 36.1961 15.8843C36.1409 15.8487 36.0758 15.8314 36.0101 15.8352H35.8735V16.441L35.6462 16.4267ZM35.8761 15.6242H36.1675C36.2626 15.6342 36.3583 15.613 36.4403 15.564C36.4645 15.5459 36.484 15.5223 36.4972 15.4952C36.5104 15.4681 36.5169 15.4382 36.516 15.408C36.5175 15.3672 36.5042 15.3272 36.4784 15.2954C36.4548 15.2613 36.4213 15.2352 36.3825 15.2203C36.3069 15.1987 36.2281 15.19 36.1495 15.1944H35.8846L35.8761 15.6242Z" fill="white"/>
</g>
<defs>
<clipPath id="clip0_1_552">
<rect width="25.0135" height="21.146" fill="white" transform="translate(12.4932 14.427)"/>
</clipPath>
</defs>
</svg>
