<svg width="50" height="50" viewBox="0 0 50 50" fill="none" xmlns="http://www.w3.org/2000/svg">
<g clip-path="url(#clip0_1_556)">
<path fill-rule="evenodd" clip-rule="evenodd" d="M24.9983 14.541C19.0593 14.541 14.2429 19.3646 14.2429 25.3153C14.2429 30.0747 17.3247 34.1133 21.5989 35.5387C22.1371 35.6372 22.3332 35.3044 22.3332 35.0188C22.3332 34.7628 22.324 34.0856 22.3187 33.1867C19.3268 33.8375 18.6955 31.7422 18.6955 31.7422C18.2062 30.4974 17.501 30.166 17.501 30.166C16.5243 29.498 17.5749 29.5113 17.5749 29.5113C18.6545 29.5872 19.2224 30.6217 19.2224 30.6217C20.1819 32.2679 21.7402 31.7924 22.353 31.5167C22.4507 30.8208 22.7287 30.346 23.0358 30.0767C20.6474 29.8042 18.1362 28.8803 18.1362 24.7518C18.1362 23.5751 18.5555 22.6141 19.2436 21.8608C19.1326 21.5883 18.7635 20.493 19.3492 19.0095C19.3492 19.0095 20.2519 18.7198 22.3068 20.1133C23.1645 19.8746 24.085 19.7555 24.9996 19.7509C25.9135 19.7555 26.8333 19.8746 27.6924 20.1133C29.746 18.7198 30.6473 19.0095 30.6473 19.0095C31.2344 20.493 30.8653 21.5883 30.755 21.8608C31.4444 22.6141 31.8604 23.5751 31.8604 24.7518C31.8604 28.8908 29.3452 29.8016 26.9495 30.0681C27.3351 30.4009 27.6792 31.0583 27.6792 32.0636C27.6792 33.5034 27.666 34.6656 27.666 35.0188C27.666 35.3071 27.8601 35.6425 28.4055 35.5372C32.6766 34.1094 35.7556 30.0741 35.7556 25.3153C35.7556 19.3646 30.9392 14.541 24.9983 14.541Z" fill="white"/>
</g>
<defs>
<clipPath id="clip0_1_556">
<rect width="21.7416" height="21.146" fill="white" transform="translate(14.1292 14.427)"/>
</clipPath>
</defs>
</svg>
