<svg width="51" height="17" viewBox="0 0 51 17" fill="none" xmlns="http://www.w3.org/2000/svg">
<path d="M19.4336 11.1798H21.9284C22.0029 11.7383 22.2326 12.2286 22.6173 12.6506C23.0145 13.0726 23.5358 13.4016 24.1813 13.6374C24.8267 13.8608 25.5715 13.9725 26.4155 13.9725C27.6691 13.9725 28.6621 13.7801 29.3944 13.3953C30.1268 12.9982 30.4929 12.4644 30.4929 11.7942C30.4929 11.248 30.2819 10.8384 29.8599 10.5653C29.4379 10.2923 28.6745 10.0875 27.5698 9.95093L24.5537 9.55995C22.8656 9.33653 21.6368 8.92071 20.8672 8.31251C20.11 7.6919 19.7315 6.81683 19.7315 5.68731C19.7315 4.83086 19.9859 4.09233 20.4948 3.47171C21.0161 2.83868 21.7485 2.3546 22.6918 2.01947C23.6351 1.67193 24.7398 1.49815 26.0059 1.49815C27.2595 1.49815 28.3704 1.68434 29.3386 2.05671C30.3068 2.42908 31.0763 2.95039 31.6473 3.62066C32.2307 4.27851 32.5472 5.05428 32.5968 5.94797L30.102 5.94797C30.0399 5.45147 29.8289 5.02325 29.4689 4.66329C29.1214 4.30334 28.6497 4.02406 28.0539 3.82546C27.4581 3.61445 26.7568 3.50895 25.95 3.50895C24.8081 3.50895 23.8958 3.69513 23.2131 4.0675C22.5304 4.43987 22.1891 4.94878 22.1891 5.59422C22.1891 6.09071 22.3877 6.47549 22.7849 6.74856C23.1945 7.00922 23.902 7.20782 24.9074 7.34435L27.9608 7.77258C29.2145 7.94635 30.2012 8.18218 30.9212 8.48008C31.6535 8.76556 32.1748 9.15655 32.4851 9.65304C32.7954 10.1371 32.9506 10.7639 32.9506 11.5335C32.9506 12.4272 32.6775 13.2092 32.1314 13.8794C31.5852 14.5497 30.8157 15.071 29.8227 15.4434C28.8421 15.8033 27.694 15.9833 26.3783 15.9833C25.0377 15.9833 23.8524 15.7847 22.8221 15.3875C21.8043 14.9779 20.9975 14.4132 20.4017 13.6932C19.8059 12.9733 19.4832 12.1355 19.4336 11.1798ZM37.3739 12.5203V10.4909L47.13 10.4909V12.5203L37.3739 12.5203ZM43.8531 1.75881L50.5558 15.7227H47.9306L41.8423 2.68974L42.7919 2.68974L36.7036 15.7227L34.0784 15.7227L40.7811 1.75881L43.8531 1.75881Z" fill="white"/>
<path d="M0.41515 0.182346L5.36758 1.81194L2.08293 5.12205L0.41515 0.182346Z" fill="white"/>
<path d="M16.859 0.182389L15.2103 5.12849L11.9129 1.83109L16.859 0.182389Z" fill="white"/>
<path d="M16.8655 16.4812L11.9131 14.8516L15.1977 11.5415L16.8655 16.4812Z" fill="white"/>
<path d="M0.421249 16.4812L2.06995 11.5351L5.36735 14.8325L0.421249 16.4812Z" fill="white"/>
<path d="M16.0002 8.4045C16.0002 12.471 12.7036 15.7675 8.63717 15.7675C4.5707 15.7675 1.27417 12.471 1.27417 8.4045C1.27417 4.33803 4.5707 1.0415 8.63717 1.0415C12.7036 1.0415 16.0002 4.33803 16.0002 8.4045ZM2.64848 8.4045C2.64848 11.712 5.32971 14.3932 8.63717 14.3932C11.9446 14.3932 14.6258 11.712 14.6258 8.4045C14.6258 5.09704 11.9446 2.41582 8.63717 2.41582C5.32971 2.41582 2.64848 5.09704 2.64848 8.4045Z" fill="white"/>
<path d="M13.3001 8.40444C13.3001 10.9799 11.2123 13.0677 8.63686 13.0677C6.06143 13.0677 3.97363 10.9799 3.97363 8.40444C3.97363 5.82901 6.06143 3.74121 8.63686 3.74121C11.2123 3.74121 13.3001 5.82901 13.3001 8.40444ZM5.16095 8.40444C5.16095 10.3241 6.71717 11.8804 8.63686 11.8804C10.5566 11.8804 12.1128 10.3241 12.1128 8.40444C12.1128 6.48475 10.5566 4.92853 8.63686 4.92853C6.71717 4.92853 5.16095 6.48475 5.16095 8.40444Z" fill="white"/>
<circle cx="8.63693" cy="8.4039" r="1.96347" fill="white"/>
</svg>
