<svg width="45" height="25" viewBox="0 0 45 25" fill="none" xmlns="http://www.w3.org/2000/svg">
<g clip-path="url(#clip0_726_857)">
<g clip-path="url(#clip1_726_857)">
<mask id="mask0_726_857" style="mask-type:alpha" maskUnits="userSpaceOnUse" x="0" y="0" width="46" height="26">
<path d="M0.0881348 0.000488281H5.27719V3.88639H16.7416V0.000488281H21.9342V11.8209H16.7416V7.93859H5.27719V11.8209H0.0881348V0.000488281Z" fill="black"/>
<path d="M45.0914 5.91068C45.13 9.09531 42.4828 12.0341 39.3433 11.9908C37.6347 11.8281 28.1531 12.439 26.7609 11.5028C22.0851 9.26883 23.4351 4.22257 23.2453 0.000488281H28.4378C28.3359 10.1617 27.6785 7.12163 38.257 7.59156C38.4734 7.59349 38.688 7.55104 38.8883 7.46666C39.0886 7.38228 39.2705 7.25769 39.4234 7.10016C39.5762 6.94263 39.697 6.75534 39.7787 6.54924C39.8603 6.34314 39.9011 6.12236 39.8988 5.89984V0.000488281H45.0914V5.91068Z" fill="black"/>
<path d="M0.0882568 13.187H5.27731L16.7418 19.9431V13.187H21.9343V25.0074H16.7418L5.27731 18.2477V25.0002H0.0882568V13.187Z" fill="black"/>
<mask id="mask1_726_857" style="mask-type:luminance" maskUnits="userSpaceOnUse" x="23" y="13" width="23" height="12">
<path d="M45.09 13.1748H23.2474V24.9952H45.09V13.1748Z" fill="white"/>
</mask>
<g mask="url(#mask1_726_857)">
<path d="M31.5494 17.2288H23.2455V13.1875H45.0916V17.2397H36.749V25.0079H31.5494V17.2288Z" fill="black"/>
<path d="M31.6175 13.7454L20.8236 24.8438L23.6103 27.7091L34.4042 16.6107L31.6175 13.7454Z" fill="black"/>
<path d="M36.9559 13.744L34.1692 16.6094L44.1949 26.9179L46.9816 24.0526L36.9559 13.744Z" fill="black"/>
</g>
</mask>
<g mask="url(#mask0_726_857)">
<path d="M0.0881348 0.000488281H5.27719V3.88639H16.7416V0.000488281H21.9342V11.8209H16.7416V7.93859H5.27719V11.8209H0.0881348V0.000488281Z" fill="white"/>
<path d="M45.0914 5.91068C45.13 9.09531 42.4828 12.0341 39.3433 11.9908C37.6347 11.8281 28.1531 12.439 26.7609 11.5028C22.0851 9.26883 23.4351 4.22257 23.2453 0.000488281H28.4378C28.3359 10.1617 27.6785 7.12163 38.257 7.59156C38.4734 7.59349 38.688 7.55104 38.8883 7.46666C39.0886 7.38228 39.2705 7.25769 39.4234 7.10016C39.5762 6.94263 39.697 6.75534 39.7787 6.54924C39.8603 6.34314 39.9011 6.12236 39.8988 5.89984V0.000488281H45.0914V5.91068Z" fill="white"/>
<path d="M0.0882568 13.187H5.27731L16.7418 19.9431V13.187H21.9343V25.0074H16.7418L5.27731 18.2477V25.0002H0.0882568V13.187Z" fill="white"/>
<mask id="mask2_726_857" style="mask-type:luminance" maskUnits="userSpaceOnUse" x="23" y="13" width="23" height="12">
<path d="M45.09 13.1748H23.2474V24.9952H45.09V13.1748Z" fill="white"/>
</mask>
<g mask="url(#mask2_726_857)">
<path d="M31.5494 17.2288H23.2455V13.1875H45.0916V17.2397H36.749V25.0079H31.5494V17.2288Z" fill="white"/>
<path d="M31.6175 13.7454L20.8236 24.8438L23.6103 27.7091L34.4042 16.6107L31.6175 13.7454Z" fill="white"/>
<path d="M36.9559 13.744L34.1692 16.6094L44.1949 26.9179L46.9816 24.0526L36.9559 13.744Z" fill="white"/>
</g>
</g>
</g>
</g>
<defs>
<clipPath id="clip0_726_857">
<rect width="45" height="25" fill="white"/>
</clipPath>
<clipPath id="clip1_726_857">
<rect width="45" height="24.9421" fill="white" transform="translate(0.0893555)"/>
</clipPath>
</defs>
</svg>
