<svg width="22" height="16" viewBox="0 0 22 16" fill="none" xmlns="http://www.w3.org/2000/svg">
<path d="M0.339826 15.2994L0.360291 3.37793L9.51736 8.9518C10.4202 9.50132 11.5568 9.48999 12.4484 8.92257L21.1615 3.37793L21.141 15.3018C21.1403 15.6879 20.8272 16.0004 20.4412 16.0004H1.03963C0.652669 16.0004 0.339162 15.6864 0.339826 15.2994Z" fill="white"/>
<path d="M1.37446 -0.000488281H20.095C20.672 -0.000488281 21.1398 0.467263 21.1398 1.04426C21.1398 1.39149 20.9673 1.71602 20.6795 1.91026L12.8629 7.1854C11.715 7.9601 10.2156 7.97542 9.05207 7.22434L0.812683 1.90562C0.517145 1.71484 0.338623 1.38712 0.338623 1.03535C0.338623 0.463273 0.802386 -0.000488281 1.37446 -0.000488281Z" fill="white"/>
</svg>
