<svg width="19" height="16" viewBox="0 0 19 16" fill="none" xmlns="http://www.w3.org/2000/svg">
<path fill-rule="evenodd" clip-rule="evenodd" d="M1.49527 6.46256C6.35783 4.34402 9.60029 2.94735 11.2227 2.27255C15.8549 0.345857 16.8174 0.0111694 17.4448 0.000117835C17.5828 -0.00231284 17.8913 0.0318834 18.0911 0.194045C18.2599 0.330971 18.3063 0.515938 18.3285 0.645759C18.3507 0.77558 18.3784 1.07132 18.3564 1.30239C18.1054 3.93989 17.0192 10.3404 16.4666 13.2944C16.2328 14.5444 15.7724 14.9635 15.3267 15.0045C14.3581 15.0937 13.6225 14.3644 12.6844 13.7494C11.2163 12.7871 10.387 12.188 8.96195 11.249C7.31512 10.1637 8.38269 9.56727 9.32122 8.59247C9.56684 8.33737 13.8347 4.45544 13.9173 4.10329C13.9276 4.05924 13.9372 3.89507 13.8397 3.80839C13.7421 3.7217 13.5982 3.75134 13.4943 3.77492C13.3471 3.80834 11.0018 5.35845 6.45861 8.42526C5.79292 8.88237 5.18996 9.10509 4.64973 9.09342C4.05417 9.08056 2.90855 8.75668 2.0569 8.47984C1.01231 8.14029 0.182095 7.96077 0.254388 7.3841C0.292043 7.08374 0.705672 6.77656 1.49527 6.46256Z" fill="white"/>
</svg>
