<svg width="17" height="16" viewBox="0 0 17 16" fill="none" xmlns="http://www.w3.org/2000/svg">
<path d="M1.64 0H8.5H14.86C15.6277 0 16.25 0.622325 16.25 1.39V3.94333C16.25 4.71101 15.6277 5.33333 14.86 5.33333H12.5567C11.789 5.33333 11.1667 5.95566 11.1667 6.72333V14.61C11.1667 15.3777 10.5443 16 9.77667 16H8.5H7.22333C6.45566 16 5.83333 15.3777 5.83333 14.61V6.72333C5.83333 5.95566 5.21101 5.33333 4.44333 5.33333H1.64C0.872324 5.33333 0.25 4.71101 0.25 3.94333V1.39C0.25 0.622324 0.872324 0 1.64 0Z" fill="white"/>
</svg>
