<svg width="130" height="86" viewBox="0 0 130 86" fill="none" xmlns="http://www.w3.org/2000/svg">
<path fill-rule="evenodd" clip-rule="evenodd" d="M84.366 13.9549H117.434V4.35125H84.366V13.9549ZM100.666 33.2426C93.2894 33.2426 87.6871 37.8773 87.1477 46.4412H113.612C111.819 36.2776 107.367 33.2426 100.666 33.2426ZM101.699 72.9639C108.51 72.9639 113.508 68.6004 114.529 64.9244H128.853C124.758 78.2195 116.303 85.6861 101.121 85.6861C81.7468 85.6861 70.8737 71.7113 70.8737 53.1676C70.8737 9.49743 133.006 7.93176 129.886 57.2453H87.1477C87.5636 67.2592 91.6386 72.9639 101.699 72.9639ZM37.2404 71.0425C45.0589 71.0425 50.5312 67.9924 50.5312 59.7621C50.5312 51.2255 45.6958 47.5226 37.5783 47.5226H17.9898V71.0425H37.2404ZM36.207 34.6845C42.7127 34.6845 47.2036 31.6133 47.2036 24.479C47.2036 16.9635 41.9783 14.6436 34.8357 14.6436H17.9898V34.6845H36.207ZM38.5012 0C53.9108 0 64.6215 5.16554 64.6215 21.2381C64.6215 29.1961 61.4694 35.1266 53.5079 39.1226C63.6986 42.1928 68.521 50.2542 68.521 60.8467C68.521 77.6613 55.3731 85.6861 39.6451 85.6861H0V0H38.5012Z" fill="white"/>
</svg>
