<svg width="131" height="111" viewBox="0 0 131 111" fill="none" xmlns="http://www.w3.org/2000/svg">
<path fill-rule="evenodd" clip-rule="evenodd" d="M101.735 0H9.51004C6.98782 0 4.56891 0.999889 2.78543 2.7797C1.00195 4.55952 0 6.97346 0 9.4905L0 101.51C0 104.027 1.00195 106.44 2.78543 108.22C4.56891 110 6.98782 111 9.51004 111H101.735C104.255 110.996 106.669 109.994 108.449 108.214C110.229 106.435 111.229 104.024 111.229 101.51V9.4905C111.229 6.97635 110.229 4.56492 108.449 2.78558C106.669 1.00625 104.255 0.0044108 101.735 0ZM103.849 71.3896C103.843 79.9344 100.437 88.1271 94.3797 94.1665C88.3226 100.206 80.1101 103.598 71.5478 103.596H39.7531C31.1923 103.596 22.9819 100.203 16.9277 94.1629C10.8735 88.1227 7.47121 79.9301 7.469 71.3869V39.5937C7.46863 35.363 8.30348 31.1736 9.92584 27.2649C11.5482 23.3562 13.9263 19.8048 16.9243 16.8135C19.9223 13.8221 23.4815 11.4495 27.3985 9.83117C31.3155 8.21281 35.5136 7.38041 39.7531 7.3815H71.6173C80.1794 7.38297 88.3907 10.7766 94.4469 16.8167C100.503 22.8568 103.909 31.0492 103.915 39.5937L103.843 71.3869L103.849 71.3896Z" fill="white"/>
<path d="M123.141 0.000375833C124.348 0.00315083 125.535 0.311176 126.589 0.893926C127.693 1.47668 128.602 2.36745 129.203 3.45525C129.808 4.5117 130.126 5.70732 130.126 6.924C130.126 8.14068 129.808 9.3363 129.203 10.3928C128.6 11.475 127.701 12.3686 126.606 12.968C125.543 13.5635 124.344 13.876 123.124 13.8754C121.935 13.8523 120.77 13.5348 119.735 12.9513C118.648 12.353 117.754 11.4603 117.154 10.3761C116.542 9.32211 116.22 8.12553 116.22 6.90735C116.22 5.68917 116.542 4.49259 117.154 3.4386C117.746 2.34525 118.642 1.4406 119.735 0.832876C120.782 0.274446 121.954 -0.0118513 123.141 0.000375833ZM123.141 1.13813C122.135 1.14611 121.148 1.40563 120.269 1.89293C119.351 2.3841 118.595 3.12503 118.086 4.02968C117.58 4.91033 117.314 5.90765 117.314 6.92261C117.314 7.93758 117.58 8.93489 118.086 9.81555C118.586 10.7174 119.34 11.4584 120.255 11.9523C121.137 12.4595 122.138 12.7265 123.156 12.7265C124.175 12.7265 125.175 12.4595 126.058 11.9523C126.97 11.4584 127.724 10.7174 128.227 9.81555C128.733 8.93489 128.999 7.93758 128.999 6.92261C128.999 5.90765 128.733 4.91033 128.227 4.02968C127.721 3.12117 126.962 2.37884 126.041 1.89293C125.154 1.40112 124.156 1.14146 123.141 1.13813ZM120.36 10.4982V3.03068H122.941C123.589 3.00015 124.239 3.06675 124.865 3.22493C125.254 3.35535 125.588 3.61343 125.81 3.95475C125.996 4.22424 126.111 4.53535 126.147 4.86027C126.182 5.1852 126.136 5.51382 126.013 5.81678C125.911 6.06208 125.76 6.28398 125.569 6.4689C125.165 6.88322 124.618 7.12668 124.039 7.14878C124.275 7.24053 124.493 7.37401 124.681 7.54283C125.107 8.00903 125.482 8.51408 125.797 9.05798L126.714 10.5731H125.185L124.517 9.39098C124.201 8.73999 123.771 8.15073 123.247 7.65105C122.957 7.46389 122.615 7.37351 122.271 7.39298H121.553V10.5731L120.36 10.4982ZM121.567 6.28575H123.096C123.596 6.33789 124.098 6.22687 124.529 5.9694C124.656 5.87473 124.758 5.75095 124.827 5.60848C124.897 5.46602 124.931 5.30904 124.926 5.15078C124.934 4.93642 124.864 4.72646 124.729 4.5597C124.605 4.38084 124.429 4.24351 124.225 4.16565C123.828 4.05217 123.415 4.0062 123.002 4.02968H121.612L121.567 6.28575Z" fill="white"/>
</svg>
