<svg width="130" height="122" viewBox="0 0 130 122" fill="none" xmlns="http://www.w3.org/2000/svg">
<path d="M104.31 55.9491C113.945 55.9491 121.198 51.9353 126.546 44.9476L119.398 39.4941C117.633 41.8209 115.351 43.706 112.733 45.0006C110.114 46.2952 107.231 46.9641 104.31 46.9545C93.8544 46.9545 86.2777 38.4361 86.2777 27.9836C86.2777 17.5311 93.7307 8.53293 104.609 8.53293C109.444 8.53293 112.862 9.67449 115.843 11.5214V20.7123H124.837V7.31136L123.114 5.9552C118.17 2.06505 110.618 0 104.307 0C88.8771 0 76.3269 12.5503 76.3269 27.98C76.3269 43.3952 88.8735 55.9491 104.31 55.9491ZM122.972 111.138L122.652 98.2571V66.8233H103.892V75.8215H113.178V97.1483C113.178 106.336 106.161 112.84 99.0824 112.84C92.0038 112.84 88.31 107.932 88.31 98.748V66.8196H70.7861V75.8179H78.8355V100.308C78.8355 112.771 85.8232 121.358 98.2862 121.358C105.448 121.358 110.902 117.384 114.156 111.258H114.301L115.585 119.824H130V111.149H122.983V111.131L122.972 111.138ZM74.2546 1.31977H58.6213L45.0239 40.8029H44.813L31.2884 1.31977H14.6299V10.3216H23.9989L40.1231 55.3237H48.6886V55.3128L65.5035 10.3252H74.2473V1.32343L74.2546 1.31977ZM0 119.94H9.26364V110.68H0.00363566V119.94H0ZM35.7748 77.2576H35.673L35.0913 66.8233H18.5564V75.0254H27.3546V111.142H18.5564V119.82H59.4211V111.313H36.6692V89.517C37.6981 81.6277 43.6133 74.8908 51.6844 74.8908H51.8299L51.6662 82.9547H60.6609V66.6742H53.5495C45.4057 66.6524 39.3632 71.0588 35.7712 77.2613L35.7748 77.2576Z" fill="white"/>
</svg>
